<svg width="60.478516" height="60.406250" viewBox="0 0 60.4785 60.4062" fill="none" xmlns="http://www.w3.org/2000/svg" xmlns:xlink="http://www.w3.org/1999/xlink">
	<desc>
			Created with Pixso.
	</desc>
	<defs/>
	<path id="Vector" d="M60.34 15.96C59.99 14.82 59.05 13.96 57.88 13.73L48.6 11.87L46.74 2.58C46.51 1.42 45.66 0.48 44.52 0.13C43.39 -0.21 42.15 0.1 41.31 0.93L30.53 11.65C22.98 6.28 12.41 6.97 5.65 13.74C-1.89 21.27 -1.89 33.54 5.65 41.07C8.05 43.47 11.01 45.16 14.31 46.03C18.11 60.45 36.16 65.24 46.66 54.74C53.43 47.97 54.14 37.43 48.75 29.88L59.52 19.17C60.37 18.33 60.68 17.1 60.34 15.96ZM42.11 27.4C42.11 27.4 42.1 27.4 42.1 27.4C42.1 27.4 42.1 27.4 42.1 27.4C40.85 28.65 40.84 30.7 42.1 31.96C47.14 37 47.12 45.16 42.1 50.19C34.61 57.67 21.75 53.45 20.28 42.86C19.67 38.43 21.21 34.63 23.87 31.96C25.13 30.7 25.13 28.66 23.87 27.4C22.62 26.15 20.58 26.15 19.32 27.4C16.07 30.65 14.23 34.77 13.78 39.01C12.45 38.39 11.25 37.56 10.2 36.52C5.18 31.49 5.18 23.32 10.2 18.29C15.23 13.27 23.41 13.27 28.43 18.29C29.69 19.55 31.72 19.55 32.98 18.3L41.6 9.73L42.7 15.24C42.96 16.52 43.95 17.51 45.23 17.77L50.69 18.86L42.11 27.4Z" fill="#FFC59E" fill-opacity="1.000000" fill-rule="nonzero"/>
</svg>
