<svg width="60.521484" height="60.521484" viewBox="0 0 60.5215 60.5215" fill="none" xmlns="http://www.w3.org/2000/svg" xmlns:xlink="http://www.w3.org/1999/xlink">
	<desc>
			Created with Pixso.
	</desc>
	<defs/>
	<path id="Vector" d="M54.87 19.33C54.87 19.33 54.87 19.32 54.87 19.32C54.87 19.32 54.87 19.32 54.86 19.32C54.86 19.31 54.86 19.31 54.85 19.31C54.85 19.31 54.85 19.3 54.85 19.3C54.85 19.3 54.85 19.3 54.85 19.3C54.84 19.3 54.84 19.29 54.84 19.29C54.84 19.29 54.84 19.29 54.84 19.29C52.34 16.8 49.33 15.14 46.15 14.3C45.28 11.01 43.59 8.05 41.2 5.65C33.66 -1.89 21.39 -1.89 13.86 5.65C6.97 12.54 6.48 23.11 11.77 30.52L0.94 41.35C0.18 42.11 -0.15 43.2 0.06 44.26L2.34 55.65C2.59 56.92 3.59 57.92 4.86 58.18L16.25 60.45C17.32 60.67 18.41 60.33 19.16 59.57L29.99 48.75C37.47 54.09 48.07 53.48 54.86 46.66C62.4 39.12 62.4 26.87 54.87 19.33ZM50.31 42.1C50.28 42.13 50.25 42.16 50.22 42.19C50.22 42.19 50.21 42.19 50.21 42.19C44.63 47.67 36.19 46.47 32.18 42.2C32.14 42.15 32.12 42.13 32.08 42.1C32.08 42.1 32.08 42.09 32.08 42.09C31.48 41.5 30.68 41.15 29.77 41.16C29.76 41.16 29.75 41.16 29.75 41.16C28.88 41.17 28.09 41.54 27.57 42.06C27.57 42.06 15.83 53.8 15.83 53.8L8.23 52.28L6.71 44.68L18.41 32.99C19.02 32.38 19.36 31.56 19.36 30.71C19.36 29.85 19.02 29.03 18.41 28.43C13.38 23.39 13.38 15.24 18.41 10.2C23.44 5.18 31.61 5.18 36.64 10.2C37.68 11.24 38.52 12.45 39.13 13.77C34.89 14.23 30.77 16.07 27.53 19.32C26.27 20.58 26.27 22.62 27.53 23.87C28.78 25.13 30.82 25.13 32.08 23.87C37.36 18.59 45.61 19.19 50.3 23.86C50.3 23.86 50.3 23.86 50.3 23.86C50.3 23.87 50.3 23.87 50.3 23.87C50.3 23.87 50.31 23.87 50.31 23.87C55.33 28.9 55.33 37.07 50.31 42.1Z" fill="#FFC59E" fill-opacity="1.000000" fill-rule="nonzero"/>
</svg>
